<svg xmlns="http://www.w3.org/2000/svg" viewBox="0 0 200 280" fill="none" stroke="currentColor" stroke-width="1.5" stroke-linecap="round" stroke-linejoin="round">
  <!-- Halo -->
  <circle cx="100" cy="60" r="32" />
  <circle cx="100" cy="60" r="38" stroke-dasharray="2 4" />
  <!-- Cabeza -->
  <ellipse cx="100" cy="62" rx="20" ry="24" />
  <!-- Cuerpo (hábito) -->
  <path d="M 70 90 Q 100 96 130 90 L 145 240 Q 100 252 55 240 Z" />
  <!-- Cinturón -->
  <line x1="68" y1="160" x2="132" y2="160" />
  <!-- Niño Dios en brazo izquierdo -->
  <circle cx="78" cy="135" r="8" />
  <path d="M 70 145 Q 78 152 86 145" />
  <!-- Lirio en brazo derecho -->
  <line x1="135" y1="145" x2="135" y2="115" />
  <path d="M 130 115 Q 135 105 140 115 Q 138 110 135 110 Q 132 110 130 115 Z" />
  <!-- Manga -->
  <path d="M 130 100 Q 145 130 140 145" />
  <path d="M 70 100 Q 55 130 60 145" />
</svg>
